HIERARCHY
ROOT Hips
{
	OFFSET 0.000000 0.000000 0.000000
	CHANNELS 6 Xposition Yposition Zposition Xrotation Yrotation Zrotation
	JOINT C_ctrl
	{
		OFFSET 0.000000 35.040482 -0.000011
		CHANNELS 3 Xrotation Yrotation Zrotation
		JOINT Bip01
		{
			OFFSET -41.537640 41.789009 -0.000007
			CHANNELS 3 Xrotation Yrotation Zrotation
			JOINT Bip01_Pelvis
			{
				OFFSET -2.462887 0.000000 0.000000
				CHANNELS 3 Xrotation Yrotation Zrotation
				JOINT BN_Tail_01
				{
					OFFSET -11.399368 7.351341 -0.000013
					CHANNELS 3 Xrotation Yrotation Zrotation
					JOINT BN_Tail_02
					{
						OFFSET -11.365196 -0.343025 0.000012
						CHANNELS 3 Xrotation Yrotation Zrotation
						JOINT BN_Tail_03
						{
							OFFSET -15.076256 -0.454979 0.000017
							CHANNELS 3 Xrotation Yrotation Zrotation
							JOINT BN_Tail_04
							{
								OFFSET -17.395691 -0.525002 0.000016
								CHANNELS 3 Xrotation Yrotation Zrotation
								JOINT BN_Tail_05
								{
									OFFSET -16.699837 -0.504005 0.000016
									CHANNELS 3 Xrotation Yrotation Zrotation
									End Site
									{
										OFFSET 0.503998 -16.699829 0.000067
									}
								}
							}
						}
					}
				}
				JOINT Bip01_Spine
				{
					OFFSET 8.297798 5.916809 -0.000020
					CHANNELS 3 Xrotation Yrotation Zrotation
					JOINT Bip01_R_Thigh
					{
						OFFSET -8.297779 -5.916794 10.541781
						CHANNELS 3 Xrotation Yrotation Zrotation
						JOINT Bip01_R_Calf
						{
							OFFSET 5.631542 -22.906792 0.862690
							CHANNELS 3 Xrotation Yrotation Zrotation
							JOINT Bip01_R_HorseLink
							{
								OFFSET -16.984341 -19.231926 -3.555767
								CHANNELS 3 Xrotation Yrotation Zrotation
								JOINT Bip01_R_Foot
								{
									OFFSET 4.290367 -24.783146 0.578056
									CHANNELS 3 Xrotation Yrotation Zrotation
									JOINT Bip01_R_Toe0
									{
										OFFSET 3.561211 -5.815116 0.760802
										CHANNELS 3 Xrotation Yrotation Zrotation
										JOINT Bip01_R_Toe0Nub
										{
											OFFSET 16.135469 0.002017 1.534789
											CHANNELS 3 Xrotation Yrotation Zrotation
											End Site
											{
												OFFSET -0.000002 16.208284 -0.000056
											}
										}
									}
								}
							}
						}
					}
					JOINT Bip01_L_Thigh
					{
						OFFSET -8.297813 -5.916832 -10.541739
						CHANNELS 3 Xrotation Yrotation Zrotation
						JOINT Bip01_L_Calf
						{
							OFFSET 5.631535 -22.906792 -0.862625
							CHANNELS 3 Xrotation Yrotation Zrotation
							JOINT Bip01_L_HorseLink
							{
								OFFSET -16.984318 -19.231949 3.555875
								CHANNELS 3 Xrotation Yrotation Zrotation
								JOINT Bip01_L_Foot
								{
									OFFSET 4.290367 -24.783169 -0.577965
									CHANNELS 3 Xrotation Yrotation Zrotation
									JOINT Bip01_L_Toe0
									{
										OFFSET 3.561245 -5.815111 -0.760799
										CHANNELS 3 Xrotation Yrotation Zrotation
										JOINT Bip01_L_Toe0Nub
										{
											OFFSET 6.574303 -0.000005 -1.538561
											CHANNELS 3 Xrotation Yrotation Zrotation
											End Site
											{
												OFFSET 0.000004 -6.751935 0.000023
											}
										}
									}
								}
							}
						}
					}
					JOINT Bip01_Spine1
					{
						OFFSET 20.556803 -4.626213 -0.000025
						CHANNELS 3 Xrotation Yrotation Zrotation
						JOINT Saddle
						{
							OFFSET 17.608810 18.174690 -0.000143
							CHANNELS 3 Xrotation Yrotation Zrotation
							End Site
							{
								OFFSET -0.000063 -0.000061 -22.448387
							}
						}
						JOINT BN_center
						{
							OFFSET 10.743275 -13.417107 -0.172041
							CHANNELS 3 Xrotation Yrotation Zrotation
							End Site
							{
								OFFSET 22.434088 0.553078 -0.579614
							}
						}
						JOINT Bip01_Spine2
						{
							OFFSET 24.765072 -2.054115 -0.000032
							CHANNELS 3 Xrotation Yrotation Zrotation
							JOINT Handle
							{
								OFFSET 63.735676 16.430748 -16.052464
								CHANNELS 3 Xrotation Yrotation Zrotation
								JOINT IK_Chain01
								{
									OFFSET -4.713058 -6.020439 0.185448
									CHANNELS 3 Xrotation Yrotation Zrotation
									End Site
									{
										OFFSET -0.000023 -0.000023 -7.648071
									}
								}
							}
							JOINT BN_hair04_01
							{
								OFFSET 1.987491 16.256981 -2.049672
								CHANNELS 3 Xrotation Yrotation Zrotation
								JOINT BN_hair04_02
								{
									OFFSET -1.318762 -3.831451 -6.174704
									CHANNELS 3 Xrotation Yrotation Zrotation
									JOINT BN_hair04_03
									{
										OFFSET -0.827490 -5.886627 -5.656666
										CHANNELS 3 Xrotation Yrotation Zrotation
										End Site
										{
											OFFSET -2.658262 5.010620 -5.929780
										}
									}
								}
							}
							JOINT Bip01_Neck
							{
								OFFSET 25.574577 9.433014 -0.000084
								CHANNELS 3 Xrotation Yrotation Zrotation
								JOINT Bip01_R_Clavicle
								{
									OFFSET -16.535652 0.011192 6.705692
									CHANNELS 3 Xrotation Yrotation Zrotation
									JOINT Bip01_R_UpperArm
									{
										OFFSET 20.272621 -12.959984 2.510816
										CHANNELS 3 Xrotation Yrotation Zrotation
										JOINT Bip01_R_Forearm
										{
											OFFSET -13.633509 -15.503704 -0.653585
											CHANNELS 3 Xrotation Yrotation Zrotation
											JOINT Bip01_R_Hand
											{
												OFFSET 2.580030 -27.804676 -1.136415
												CHANNELS 3 Xrotation Yrotation Zrotation
												JOINT Bip01_R_Finger0
												{
													OFFSET -0.281744 -19.659061 -0.398649
													CHANNELS 3 Xrotation Yrotation Zrotation
													JOINT Bip01_Xtra02
													{
														OFFSET 4.152210 -5.712314 0.433813
														CHANNELS 3 Xrotation Yrotation Zrotation
														JOINT Bip01_Xtra02Nub
														{
															OFFSET 15.457960 0.041654 0.507982
															CHANNELS 3 Xrotation Yrotation Zrotation
															End Site
															{
																OFFSET -15.421730 -0.157725 -1.163459
															}
														}
													}
													JOINT Bip01_R_Finger0Nub
													{
														OFFSET 8.362326 -9.718440 -0.143142
														CHANNELS 3 Xrotation Yrotation Zrotation
														End Site
														{
															OFFSET -1.213036 -0.198171 9.872291
														}
													}
												}
											}
										}
									}
								}
								JOINT Bip01_L_Clavicle
								{
									OFFSET -16.535673 0.011162 -6.705583
									CHANNELS 3 Xrotation Yrotation Zrotation
									JOINT Bip01_L_UpperArm
									{
										OFFSET 20.272615 -12.959999 -2.510836
										CHANNELS 3 Xrotation Yrotation Zrotation
										JOINT Bip01_L_Forearm
										{
											OFFSET -13.633495 -15.503681 0.653678
											CHANNELS 3 Xrotation Yrotation Zrotation
											JOINT Bip01_L_Hand
											{
												OFFSET 2.579988 -27.804686 1.136487
												CHANNELS 3 Xrotation Yrotation Zrotation
												JOINT Bip01_L_Finger0
												{
													OFFSET -0.281765 -19.659058 0.398696
													CHANNELS 3 Xrotation Yrotation Zrotation
													JOINT Bip01_Xtra01
													{
														OFFSET 4.083549 -5.738758 -0.666714
														CHANNELS 3 Xrotation Yrotation Zrotation
														JOINT Bip01_Xtra01Nub
														{
															OFFSET 6.758158 -0.395525 -0.023239
															CHANNELS 3 Xrotation Yrotation Zrotation
															End Site
															{
																OFFSET 6.764923 -0.254147 -0.029908
															}
														}
													}
													JOINT Bip01_L_Finger0Nub
													{
														OFFSET -0.012636 -9.629153 0.045740
														CHANNELS 3 Xrotation Yrotation Zrotation
														End Site
														{
															OFFSET 0.988407 0.004791 8.293357
														}
													}
												}
											}
										}
									}
								}
								JOINT BN_hair03_01
								{
									OFFSET -5.894140 16.270622 -2.498433
									CHANNELS 3 Xrotation Yrotation Zrotation
									JOINT BN_hair03_02
									{
										OFFSET -0.189278 -7.800507 -6.219162
										CHANNELS 3 Xrotation Yrotation Zrotation
										JOINT BN_hair03_03
										{
											OFFSET 0.612345 -10.844475 -3.370718
											CHANNELS 3 Xrotation Yrotation Zrotation
											End Site
											{
												OFFSET -2.273296 2.862007 -10.769416
											}
										}
									}
								}
								JOINT Bip01_Neck1
								{
									OFFSET 9.383755 11.908699 -0.000007
									CHANNELS 3 Xrotation Yrotation Zrotation
									JOINT BN_hair02_01
									{
										OFFSET 9.126320 18.808022 -1.420810
										CHANNELS 3 Xrotation Yrotation Zrotation
										JOINT BN_hair02_02
										{
											OFFSET 0.393478 -5.181091 -5.248574
											CHANNELS 3 Xrotation Yrotation Zrotation
											JOINT BN_hair02_03
											{
												OFFSET 0.762280 -8.167076 -0.230047
												CHANNELS 3 Xrotation Yrotation Zrotation
												End Site
												{
													OFFSET -0.025837 -1.251419 -8.109770
												}
											}
										}
									}
									JOINT Bip01_Head
									{
										OFFSET 14.266129 10.475403 -0.000008
										CHANNELS 3 Xrotation Yrotation Zrotation
										JOINT BN_Reins_01
										{
											OFFSET 18.547455 -15.740112 -0.000035
											CHANNELS 3 Xrotation Yrotation Zrotation
											JOINT BN_Reins_02
											{
												OFFSET -5.372810 -5.884506 0.000028
												CHANNELS 3 Xrotation Yrotation Zrotation
												JOINT BN_Reins_03
												{
													OFFSET -6.395866 -15.947449 0.000070
													CHANNELS 3 Xrotation Yrotation Zrotation
													JOINT BN_Halter_R_01
													{
														OFFSET -1.234055 -3.096100 7.096737
														CHANNELS 3 Xrotation Yrotation Zrotation
														End Site
														{
															OFFSET 10.514435 -4.176861 -0.000004
														}
													}
													JOINT BN_Halter_L_01
													{
														OFFSET -1.234062 -3.096146 -7.096726
														CHANNELS 3 Xrotation Yrotation Zrotation
														End Site
														{
															OFFSET -10.514435 4.176865 -0.000000
														}
													}
													JOINT BN_Reins_04
													{
														OFFSET -6.737644 -16.971684 0.000074
														CHANNELS 3 Xrotation Yrotation Zrotation
														JOINT BN_Halter_R_02
														{
															OFFSET -4.688869 -11.781956 7.096771
															CHANNELS 3 Xrotation Yrotation Zrotation
															End Site
															{
																OFFSET 14.669624 -5.827511 -0.000006
															}
														}
														JOINT BN_Halter_L_02
														{
															OFFSET -4.688892 -11.782017 -7.096693
															CHANNELS 3 Xrotation Yrotation Zrotation
															End Site
															{
																OFFSET -14.669624 5.827507 -0.000002
															}
														}
														JOINT BN_Reins_05
														{
															OFFSET -6.822578 -16.971161 0.000074
															CHANNELS 3 Xrotation Yrotation Zrotation
															JOINT BN_Reins_06
															{
																OFFSET -6.140354 -15.095148 0.000066
																CHANNELS 3 Xrotation Yrotation Zrotation
																End Site
																{
																	OFFSET -15.095150 6.140352 -0.000002
																}
															}
														}
													}
												}
											}
										}
										JOINT BN_hair01_01
										{
											OFFSET 8.957344 8.870956 0.112121
											CHANNELS 3 Xrotation Yrotation Zrotation
											JOINT BN_hair01_02
											{
												OFFSET 6.002075 -2.962952 -3.121264
												CHANNELS 3 Xrotation Yrotation Zrotation
												End Site
												{
													OFFSET 5.917702 3.813591 -2.232396
												}
											}
										}
										JOINT BN_Eyebrow_R
										{
											OFFSET 11.795959 -0.430496 4.449781
											CHANNELS 3 Xrotation Yrotation Zrotation
											JOINT Bip01_Xtra06Nub
											{
												OFFSET 2.936661 -0.262573 3.246701
												CHANNELS 3 Xrotation Yrotation Zrotation
												End Site
												{
													OFFSET 2.768745 0.208199 3.394807
												}
											}
										}
										JOINT BN_Eyebrow_L
										{
											OFFSET 11.586395 -0.445618 -4.441728
											CHANNELS 3 Xrotation Yrotation Zrotation
											JOINT Bip01_Xtra05Nub
											{
												OFFSET 3.244698 -0.349442 -4.416700
												CHANNELS 3 Xrotation Yrotation Zrotation
												End Site
												{
													OFFSET 3.053162 0.072495 -4.564033
												}
											}
										}
										JOINT Bip01_R_Ear_01
										{
											OFFSET 7.142960 7.567184 4.311657
											CHANNELS 3 Xrotation Yrotation Zrotation
											JOINT Bip01_Xtra04Nub
											{
												OFFSET 9.464531 9.264214 1.682953
												CHANNELS 3 Xrotation Yrotation Zrotation
												End Site
												{
													OFFSET 8.448181 10.159340 1.910823
												}
											}
										}
										JOINT Bip01__L_Ear_01
										{
											OFFSET 7.214943 7.717056 -4.356771
											CHANNELS 3 Xrotation Yrotation Zrotation
											JOINT Bip01_Xtra03Nub
											{
												OFFSET 9.230225 8.944366 -2.322746
												CHANNELS 3 Xrotation Yrotation Zrotation
												End Site
												{
													OFFSET 8.170288 9.841324 -2.643566
												}
											}
										}
										JOINT Bip01_Jaw
										{
											OFFSET 9.196068 -4.110695 -0.000013
											CHANNELS 3 Xrotation Yrotation Zrotation
											JOINT Bip01_Ponytail1Nub
											{
												OFFSET 10.976463 -21.082108 -0.000053
												CHANNELS 3 Xrotation Yrotation Zrotation
												End Site
												{
													OFFSET 11.247093 -20.938980 0.000113
												}
											}
										}
										JOINT Bip01_HeadNub
										{
											OFFSET 29.954575 -18.249489 -0.000063
											CHANNELS 3 Xrotation Yrotation Zrotation
											End Site
											{
												OFFSET -9.198448 -13.366348 0.000168
											}
										}
									}
								}
							}
						}
					}
				}
			}
		}
	}
}
MOTION
Frames: 4
Frame Time: 0.033333
0.000000 0.000000 0.000000 0.000008 0.000000 -0.000000 -0.000000 0.000000 -0.000000 0.000102 0.000044 -35.625024 -0.731191 -2.605376 -1.546466 0.820911 -2.483868 8.516038 3.074594 10.106095 -18.748036 -6.543944 12.924987 25.422970 -5.076209 1.473479 72.127686 -3.087409 -13.619862 -15.771626 0.129440 2.454733 11.324139 12.246747 10.431807 -28.384012 8.108363 -2.810702 -44.457531 -10.101912 -7.563214 67.308488 8.173460 -19.929467 -98.259416 0.095361 0.037223 -0.460037 0.005703 0.010009 -0.001140 -11.074509 -8.540528 -30.508894 -9.205267 3.914242 -52.274132 8.479122 4.548812 50.088011 -5.524321 8.878021 -54.465072 -0.462770 -0.173830 -2.218643 0.008515 0.000078 0.038652 1.951164 -0.439296 -11.697229 -1.469354 0.207139 37.543258 1.156310 -0.143966 -1.006157 0.701677 0.333337 -11.615275 0.000078 -0.000112 -0.000057 -0.000052 -0.014821 0.015041 1.881455 1.572124 1.462636 6.612634 11.512009 -15.509080 4.975556 5.266129 -6.968489 -0.606980 -0.083296 10.293193 0.458646 2.181316 3.381826 0.383563 -4.606149 39.051231 -0.001023 -0.046877 1.142807 1.538512 1.771645 6.907004 4.524494 5.342376 -25.711511 -1.353244 3.861790 5.945713 -0.793873 0.152312 -0.479410 -0.804180 0.123492 -0.482657 0.601314 -0.316586 -8.504668 -1.705740 1.788742 44.003337 0.000096 0.003470 0.084354 -3.098256 -0.619750 4.714553 0.954362 -9.181183 -20.657164 -1.098492 6.839204 2.000602 0.028230 0.072122 2.451925 -0.000913 0.100593 2.451953 0.605815 -0.217841 3.748304 -0.153441 0.947455 -3.025939 1.233423 -0.511316 2.246985 -0.400148 -0.832436 12.715500 3.475360 0.329667 -0.073318 0.994021 0.314954 -11.642211 4.986431 -0.064306 -2.744761 -1.798568 0.282286 -17.113278 -0.000124 -0.000389 -40.728339 -0.435189 0.859119 26.149125 -0.000114 -0.000113 -38.400734 -0.000011 -0.000019 1.314168 5.519494 -2.043345 1.412528 -0.000189 -0.000144 -59.708482 -23.901926 -11.933154 -2.566271 34.949193 16.671904 -5.206542 -0.000105 -0.000122 -40.409916 0.000017 0.000041 -0.000000 2.393028 6.620255 -0.300191 7.243442 2.711240 4.810462 0.000064 -0.000075 0.000048 0.018784 -0.023326 11.778614 0.000064 -0.000066 0.000009 0.023220 -0.032292 11.715984 0.885428 1.335101 -11.105668 0.039066 0.011713 11.754837 -1.290221 -1.929239 -11.270264 0.038948 0.011481 11.744857 -0.000022 0.000058 2.918461 -0.003498 -0.040877 11.750665 0.000055 -0.000027 11.750680 
0.000000 0.000000 0.000000 0.000008 0.000000 -0.000000 -0.000000 0.000000 -0.000000 0.028348 -0.020201 -35.625030 -0.784634 -2.670456 -1.509477 0.067601 -1.338150 5.266633 1.013578 7.277554 -9.679285 -1.436753 16.212171 3.404396 -10.801013 3.266072 71.644115 2.100242 -10.758256 9.489321 0.138291 2.522186 11.275234 12.357970 10.556496 -28.348857 8.139951 -2.838540 -44.669106 -10.077853 -7.496720 66.953824 8.178755 -20.214988 -98.704088 0.095361 0.037226 -0.460037 0.005703 0.010009 -0.001142 -11.080034 -8.518027 -30.952706 -9.086777 3.779735 -51.374999 8.393815 4.436477 49.381001 -5.773896 9.177056 -56.060171 -0.462769 -0.173829 -2.218642 0.008516 0.000079 0.038651 1.908341 -0.427188 -11.793744 -1.362367 0.199701 37.545854 0.965743 -0.146059 -1.001644 0.657282 0.336505 -11.615009 0.000078 -0.000112 -0.000059 -0.000045 -0.040831 0.015046 1.881428 1.572107 1.462624 6.612630 11.512013 -15.509075 4.975561 5.266130 -6.968491 -0.600594 -0.106455 10.291416 0.450292 2.237305 3.584983 0.496209 -4.654490 38.830595 -0.001200 -0.077008 1.877436 1.577551 1.773854 6.015564 4.581770 5.304955 -26.292501 -1.353212 3.861783 5.945724 -0.793899 0.152315 -0.479411 -0.804180 0.123490 -0.482655 0.599471 -0.277213 -8.598244 -1.636978 1.772439 44.368465 -0.000038 -0.000746 -0.018469 -3.082623 -0.619966 4.732558 1.022124 -9.212901 -20.235194 -1.098492 6.839202 2.000598 0.028257 0.072122 2.451930 -0.000914 0.100590 2.451952 0.605821 -0.217841 3.748305 -0.153430 0.947458 -3.025937 1.233426 -0.511316 2.246982 -0.387335 -0.842549 12.720487 3.174992 0.283808 -0.047881 2.008540 0.251697 -10.495350 2.863909 -0.793780 -6.140251 -1.732985 0.284198 -17.054156 -0.000124 -0.000389 -40.728333 -0.441294 0.864693 26.086530 -0.000114 -0.000113 -38.388798 -0.000011 -0.000019 1.314172 5.519494 -2.043345 1.412529 -0.000189 -0.000144 -59.690020 -23.901928 -11.933155 -2.566272 34.949197 16.671903 -5.206573 -0.000105 -0.000122 -40.402867 0.000017 0.000041 0.000003 2.393027 6.620258 -0.300196 5.440086 1.444626 5.145921 0.000064 -0.000076 0.000049 0.018782 -0.023331 11.778607 0.000064 -0.000065 0.000010 0.023239 -0.032283 11.715964 0.885427 1.335101 -11.105663 0.039081 0.011736 11.754844 -1.290222 -1.929238 -11.270265 0.038959 0.011504 11.744850 -0.121667 0.642790 2.343346 -0.003480 -0.040898 11.750664 0.000055 -0.000027 11.750684 
0.000000 0.000000 0.000000 0.000008 0.000000 -0.000000 -0.000000 0.000000 -0.000000 0.056061 -0.040061 -35.625000 -0.951689 -2.793319 -1.406058 -0.541020 -0.143040 2.105343 -0.150599 0.859334 8.205457 5.542812 16.192044 -20.917577 -16.871786 6.478322 67.865108 4.960106 -6.136424 40.198163 0.249553 2.650358 11.157990 12.402878 10.662851 -28.096265 8.164269 -2.860116 -44.832453 -10.036697 -7.385868 66.360786 8.243602 -20.256581 -98.198121 0.095361 0.037225 -0.460039 0.005702 0.010010 -0.001142 -11.063121 -8.511631 -31.394784 -8.929107 3.607110 -50.202044 8.333135 4.358280 48.884846 -5.990296 9.446181 -57.673530 -0.462770 -0.173830 -2.218642 0.008516 0.000077 0.038650 1.853373 -0.411245 -11.862676 -1.257616 0.192375 37.548186 0.778873 -0.148117 -0.997197 0.600198 0.340653 -11.614662 0.000077 -0.000112 -0.000058 -0.000038 -0.092906 0.015048 1.881427 1.572110 1.462629 6.612635 11.512007 -15.509078 4.975552 5.266128 -6.968486 -0.585216 -0.130471 10.297123 0.432963 2.297620 3.792712 0.640858 -4.714695 38.577325 -0.000811 -0.118546 2.890255 1.633075 1.775628 4.757734 4.664822 5.249603 -27.146059 -1.353227 3.861724 5.945663 -0.793926 0.152315 -0.479416 -0.804180 0.123492 -0.482658 0.590012 -0.191253 -8.971728 -1.580381 1.713958 45.194160 -0.000391 -0.010882 -0.265725 -3.044896 -0.620213 4.749437 1.146702 -9.271477 -19.596393 -1.098492 6.839204 2.000603 0.028284 0.072123 2.451928 -0.000914 0.100591 2.451956 0.605799 -0.217861 3.748262 -0.153433 0.947457 -3.025937 1.233422 -0.511318 2.246988 -0.367947 -0.857853 12.732024 2.541424 0.226668 -0.035559 3.850864 0.141195 -8.583639 0.743926 -1.386510 -9.494418 -1.641490 0.304982 -17.034396 -0.000124 -0.000389 -40.728333 -0.433749 0.857804 26.059658 -0.000114 -0.000113 -38.386606 -0.000011 -0.000019 1.314174 5.519493 -2.043345 1.412527 -0.000189 -0.000144 -59.686489 -23.901928 -11.933155 -2.566271 34.949197 16.671904 -5.206570 -0.000105 -0.000122 -40.395986 0.000017 0.000041 -0.000002 2.393024 6.620269 -0.300205 3.679457 0.193102 5.435964 0.000064 -0.000074 0.000043 0.018799 -0.023324 11.778627 0.000064 -0.000064 0.000009 0.023254 -0.032277 11.715941 0.885427 1.335101 -11.105665 0.039092 0.011760 11.754842 -1.290221 -1.929239 -11.270265 0.038972 0.011527 11.744841 -0.292234 1.611415 1.294585 -0.003462 -0.040920 11.750670 0.000056 -0.000026 11.750683 
0.000000 0.000000 0.000000 0.000008 0.000000 -0.000000 -0.000000 0.000000 -0.000000 0.079560 -0.056905 -35.625010 -1.129862 -2.924604 -1.294803 -1.238390 1.914099 -2.937649 2.006407 -4.262088 23.511516 8.721075 14.984515 -32.409698 -19.270081 12.221987 57.074652 1.445456 -1.407651 64.436981 0.360627 2.787013 11.034953 12.392126 10.754616 -27.653040 8.182877 -2.876707 -44.957719 -9.979584 -7.237510 65.563676 8.362206 -20.095917 -96.878208 0.095361 0.037223 -0.460039 0.005703 0.010009 -0.001145 -11.026276 -8.519251 -31.844248 -8.732352 3.401244 -48.772885 8.293740 4.308265 48.565695 -6.181747 9.698056 -59.343921 -0.462769 -0.173830 -2.218640 0.008516 0.000077 0.038650 1.786547 -0.391613 -11.908938 -1.152012 0.184886 37.550328 0.590153 -0.150229 -0.992718 0.530731 0.345728 -11.614249 0.000077 -0.000112 -0.000057 -0.000010 -0.144953 0.015049 1.881427 1.572109 1.462633 6.612633 11.512009 -15.509075 4.975556 5.266126 -6.968488 -0.561784 -0.155667 10.309850 0.407707 2.362689 4.007478 0.816705 -4.787179 38.293592 0.000731 -0.171040 4.170700 1.704397 1.775941 3.148232 4.771295 5.176797 -28.255412 -1.353231 3.861677 5.945690 -0.793980 0.152315 -0.479419 -0.804180 0.123492 -0.482655 0.574679 -0.063449 -9.594699 -1.531522 1.617332 46.430707 -0.001009 -0.026247 -0.640635 -2.979945 -0.620509 4.763768 1.321594 -9.351937 -18.771788 -1.098492 6.839204 2.000600 0.028339 0.072123 2.451928 -0.000914 0.100591 2.451957 0.605794 -0.217883 3.748272 -0.153437 0.947455 -3.025939 1.233421 -0.511316 2.246986 -0.340156 -0.879790 12.752711 1.926715 0.175079 -0.028060 4.847433 0.094536 -8.017389 -0.096887 -1.650581 -10.872487 -1.525092 0.342882 -17.049510 -0.000124 -0.000389 -40.728333 -0.413801 0.839593 26.064174 -0.000114 -0.000113 -38.396820 -0.000011 -0.000019 1.314174 5.519493 -2.043345 1.412528 -0.000189 -0.000144 -59.696372 -23.901926 -11.933154 -2.566273 34.949200 16.671899 -5.206571 -0.000105 -0.000122 -40.402218 0.000033 0.000035 -0.000046 2.392993 6.620267 -0.300188 2.250183 -0.811547 5.654618 0.000066 -0.000076 0.000048 0.018815 -0.023314 11.778652 0.000062 -0.000063 0.000013 0.023283 -0.032276 11.715894 0.885426 1.335102 -11.105662 0.039118 0.011807 11.754845 -1.290223 -1.929238 -11.270264 0.038997 0.011575 11.744835 -0.405584 2.505943 0.242523 -0.003427 -0.040961 11.750672 0.000055 -0.000026 11.750680 
